<?xml version="1.0" encoding="UTF-8" standalone="no"?>
<svg
   version="1.1"
   viewBox="0 0 24 24"
   id="svg5"
   sodipodi:docname="keyoxide-white.svg"
   inkscape:version="1.3.2 (091e20ef0f, 2023-11-25)"
   xmlns:inkscape="http://www.inkscape.org/namespaces/inkscape"
   xmlns:sodipodi="http://sodipodi.sourceforge.net/DTD/sodipodi-0.dtd"
   xmlns="http://www.w3.org/2000/svg"
   xmlns:svg="http://www.w3.org/2000/svg">
  <defs
     id="defs5" />
  <sodipodi:namedview
     id="namedview5"
     pagecolor="#505050"
     bordercolor="#eeeeee"
     borderopacity="1"
     inkscape:showpageshadow="0"
     inkscape:pageopacity="0"
     inkscape:pagecheckerboard="0"
     inkscape:deskcolor="#505050"
     inkscape:zoom="48.541667"
     inkscape:cx="12"
     inkscape:cy="12"
     inkscape:window-width="2560"
     inkscape:window-height="1371"
     inkscape:window-x="0"
     inkscape:window-y="0"
     inkscape:window-maximized="1"
     inkscape:current-layer="svg5" />
  <path
     d="m14.662 2.7734c-0.86914 8.5e-6 -1.5742 0.70509-1.5742 1.5742 0 0.52528 0.26095 1.006 0.67773 1.2949 0.12007 0.083138 0.18912 0.092562 0.20508 0.22266 0.01604 0.13001-0.16211 0.25-0.16211 0.25l-3.3242 2.5859v-0.5293c0.14724-1.4561-0.83223-2.9405-2.2754-3.2793-1.719-0.502-3.7931 1.0298-3.7931 2.6452 0 1.9182 0.00778 8.9247 0.00211 13.429-0.00211 1.6772 1.3577 3.0332 3.0332 3.0332s3.0352-1.3576 3.0352-3.0332v-0.39648c1.365 0.90898 2.7303 1.8174 4.0938 2.7285 1.1299 0.93021 2.9078 0.93859 3.9902-0.07422 1.3712-1.1518 1.323-3.4999-0.0918-4.5957-1.935-1.3219-3.8897-2.6181-5.8418-3.916l5.7734-4.4883c1.1632-0.90466 1.4954-2.5005 0.83398-3.7832-0.04938-0.095755-0.06511-0.12998-0.16797-0.16992-0.10277-0.039938-0.18425 0.00439-0.28711 0.042969-0.14138 0.053062-0.29257 0.080078-0.44531 0.080078-0.69894 0-1.2656-0.56662-1.2656-1.2656 9.4e-5 -0.094853 0.01636-0.14996-0.01172-0.20898-0.02807-0.059023-0.10233-0.097092-0.17578-0.10547-0.12191-0.013926-0.24437-0.020476-0.36719-0.019531-0.12049 8.587e-4 -0.21169-0.00952-0.26367-0.097656-0.05189-0.088142-0.02344-0.18975-0.02344-0.34961 0-0.86915-0.70504-1.5742-1.5742-1.5742z"
     id="path1" />
  <path
     d="m12.806 3.085a1.0735 1.0735 0 0 1-1.0735 1.0735 1.0735 1.0735 0 0 1-1.0735-1.0735 1.0735 1.0735 0 0 1 1.0735-1.0735 1.0735 1.0735 0 0 1 1.0735 1.0735z"
     id="path2" />
  <path
     d="m13.458 1.0033a0.70038 0.70038 0 0 1-0.70038 0.70038 0.70038 0.70038 0 0 1-0.70038-0.70038 0.70038 0.70038 0 0 1 0.70038-0.70038 0.70038 0.70038 0 0 1 0.70038 0.70038z"
     id="path3" />
  <path
     d="m11.339 0.48902a0.48902 0.48902 0 0 1-0.48902 0.48902 0.48902 0.48902 0 0 1-0.48902-0.48902 0.48902 0.48902 0 0 1 0.48902-0.48902 0.48902 0.48902 0 0 1 0.48902 0.48902z"
     id="path4" />
  <path
     d="m19.203 5.1296a0.85797 0.85797 0 0 1-0.85797 0.85797 0.85797 0.85797 0 0 1-0.85797-0.85797 0.85797 0.85797 0 0 1 0.85797-0.85797 0.85797 0.85797 0 0 1 0.85797 0.85797z"
     id="path5" />
  <path
     style="fill:#ffffff;stroke-width:0.0206009"
     d="M 7.0763948,23.968687 C 5.74264,23.783565 4.6996922,22.782486 4.4691349,21.466094 4.4352646,21.272709 4.4329353,20.833439 4.4311192,14.296996 4.4290088,6.7013303 4.4206631,7.2343511 4.5474002,6.8703863 4.8793885,5.9169787 5.8365925,5.1142892 6.9346506,4.8684921 7.2203368,4.8045422 7.779011,4.7996194 8.0343348,4.8588023 8.6950033,5.0119422 9.1166332,5.2401431 9.5596182,5.684339 9.994602,6.1205115 10.26269,6.5973478 10.403448,7.1852205 c 0.07082,0.295781 0.08941,0.5540541 0.07704,1.0705735 -0.0059,0.2464378 -0.0038,0.4480687 0.0046,0.4480687 0.03802,0 3.418993,-2.6503571 3.453812,-2.7074557 0.04317,-0.070794 0.0499,-0.1586177 0.01688,-0.2203146 -0.01205,-0.022518 -0.07159,-0.072723 -0.132318,-0.1115683 -0.499286,-0.3193889 -0.788505,-0.9295526 -0.712245,-1.5026145 0.08324,-0.6255085 0.48745,-1.1055447 1.105163,-1.3124795 0.123681,-0.041433 0.1831,-0.047713 0.45144,-0.047713 0.294181,0 0.317676,0.0031 0.489501,0.064578 0.255687,0.091484 0.391372,0.1779286 0.593848,0.3783402 0.337613,0.3341713 0.472016,0.6711233 0.472016,1.1833558 0,0.2308487 0.0016,0.2392454 0.05757,0.3018808 l 0.05757,0.064427 0.288333,0.01554 c 0.312466,0.016841 0.412544,0.04705 0.429313,0.129591 0.0051,0.025287 0.01388,0.1340459 0.01944,0.2416854 0.01779,0.3447807 0.138155,0.6165522 0.379235,0.8562555 0.152285,0.1514142 0.385782,0.2810876 0.594287,0.3300391 0.211833,0.049733 0.52575,0.031793 0.736986,-0.042116 0.180543,-0.063171 0.293855,-0.062377 0.367385,0.00257 0.09491,0.083832 0.286063,0.5694487 0.359524,0.9133339 0.05316,0.2488322 0.05328,0.9255428 2.07e-4,1.1716687 -0.08866,0.4111797 -0.236338,0.7641489 -0.46077,1.1012735 -0.27369,0.4111134 -0.282871,0.4187769 -3.466364,2.893378 -1.61386,1.254489 -2.93683,2.29016 -2.939933,2.301491 -0.0031,0.01133 0.955781,0.661767 2.130857,1.445415 3.298645,2.199839 3.732241,2.497515 3.940087,2.704973 0.395017,0.394283 0.653028,0.889238 0.784293,1.504547 0.06664,0.312361 0.06668,0.902717 8.5e-5,1.215451 -0.11082,0.520442 -0.319845,0.960294 -0.62951,1.324684 -0.150489,0.177083 -0.464201,0.457177 -0.651549,0.581726 -1.016098,0.6755 -2.44006,0.649856 -3.449396,-0.06212 -0.234315,-0.165284 -4.232312,-2.833976 -4.263595,-2.84598 -0.02003,-0.0077 -0.02861,0.0804 -0.03776,0.387719 -0.01297,0.435407 -0.05049,0.665438 -0.160205,0.982082 -0.155694,0.449341 -0.373473,0.79233 -0.7285261,1.147383 -0.4529385,0.452939 -0.9549866,0.721325 -1.5772944,0.843197 -0.2044464,0.04004 -0.7332686,0.05749 -0.9270387,0.0306 z"
     id="path6" />
  <path
     style="fill:#ffffff;stroke-width:0.0206009"
     d="M 18.16307,5.9529498 C 17.910596,5.8981492 17.707549,5.7359952 17.587668,5.4934335 17.514166,5.3447116 17.51073,5.3284634 17.51073,5.1296137 c 0,-0.1991571 0.0034,-0.2149239 0.07758,-0.3651188 0.127285,-0.2575441 0.345,-0.419213 0.634629,-0.4712579 0.114552,-0.020585 0.159486,-0.018966 0.292007,0.010517 0.273951,0.060948 0.477496,0.2253235 0.600536,0.4849697 0.0583,0.1230363 0.06392,0.1530665 0.06392,0.3419584 0,0.1976158 -0.0035,0.2141896 -0.07694,0.3627513 -0.121988,0.2468245 -0.322829,0.4048766 -0.5851,0.4604433 -0.168358,0.03567 -0.185897,0.035624 -0.354291,-9.27e-4 z"
     id="path7" />
  <path
     style="fill:#ffffff;stroke-width:0.0206009"
     d="M 11.465029,4.1099089 C 10.764654,3.9202497 10.454661,3.1134023 10.847164,2.501739 c 0.130112,-0.202762 0.404553,-0.3964738 0.637815,-0.4501965 0.118871,-0.027378 0.375288,-0.02744 0.493847,-1.212e-4 0.236843,0.054575 0.506503,0.2447923 0.638388,0.4503177 0.209993,0.3272464 0.232355,0.6988406 0.06284,1.0442982 -0.226223,0.461033 -0.73053,0.6950722 -1.215027,0.5638717 z"
     id="path8" />
  <path
     style="fill:#ffffff;stroke-width:0.0206009"
     d="M 12.595969,1.6714019 C 12.075062,1.5309502 11.895903,0.89598335 12.271317,0.52078235 c 0.126201,-0.12612936 0.261541,-0.18522266 0.449713,-0.1963579 0.218798,-0.0129475 0.362395,0.0425019 0.517305,0.19975527 0.155948,0.15830647 0.211113,0.30145518 0.199115,0.51668588 -0.01798,0.3225194 -0.22972,0.5683438 -0.547477,0.635599 -0.133143,0.02818 -0.173274,0.027489 -0.294004,-0.00506 z"
     id="path9" />
  <path
     style="fill:#ffffff;stroke-width:0.0206009"
     d="M 10.649494,0.91908408 C 10.541457,0.87001218 10.425477,0.73354774 10.39289,0.61715858 10.33677,0.4167141 10.42407,0.19689015 10.603977,0.08566453 c 0.178513,-0.1103658 0.392601,-0.09319575 0.553324,0.04437702 0.247205,0.21159826 0.211712,0.60456075 -0.06915,0.76563723 -0.131061,0.0751635 -0.304346,0.0844095 -0.438653,0.0234053 z"
     id="path10" />
</svg>
